<?xml version="1.0" encoding="UTF-8"?>
<!DOCTYPE svg PUBLIC "-//W3C//DTD SVG 1.1//EN" "http://www.w3.org/Graphics/SVG/1.1/DTD/svg11.dtd">
<!-- Creator: CorelDRAW 2020 (64-Bit) -->
<svg xmlns="http://www.w3.org/2000/svg" xml:space="preserve" width="3886px" height="2072px" version="1.1" style="shape-rendering:geometricPrecision; text-rendering:geometricPrecision; image-rendering:optimizeQuality; fill-rule:evenodd; clip-rule:evenodd"
viewBox="0 0 8428.57 4494.25"
 xmlns:xlink="http://www.w3.org/1999/xlink"
 xmlns:xodm="http://www.corel.com/coreldraw/odm/2003">
 <defs>
  <style type="text/css">
   <![CDATA[
    .str0 {stroke:white;stroke-width:90.37;stroke-miterlimit:10}
    .fil1 {fill:none;fill-rule:nonzero}
    .fil0 {fill:white;fill-rule:nonzero}
   ]]>
  </style>
 </defs>
 <g id="Capa_x0020_1">
  <metadata id="CorelCorpID_0Corel-Layer"/>
  <path class="fil0" d="M5069.08 1659.89c0,-305.57 248.02,-553.38 553.42,-553.38 305.59,0 553.26,247.81 553.26,553.38 0,305.57 247.68,553.26 553.26,553.26 305.74,0 553.42,-247.69 553.42,-553.26l-0.17 0c0,-916.72 -743.04,-1659.89 -1659.77,-1659.89 -871.08,0 -1585.09,670.89 -1654.22,1523.97 -2.85,36.36 8.38,68.59 32.89,95.35 24.67,26.81 56.04,40.57 92.45,40.57l975.46 0z"/>
  <path class="fil1 str0" d="M7281.94 1659.89c0,305.57 -247.68,553.3 -553.25,553.3 -305.75,0 -553.26,-247.73 -553.26,-553.3 0,-305.57 -247.69,-553.22 -553.43,-553.22 -305.56,0 -553.25,247.65 -553.25,553.22l0 0.04c0,916.68 743.21,1659.77 1659.94,1659.77 870.91,0 1585.25,-670.77 1654.23,-1523.89 3.01,-36.33 -8.23,-68.72 -32.89,-95.35 -24.67,-26.85 -55.89,-40.57 -92.3,-40.57l-975.79 0z"/>
  <path class="fil0" d="M0 3666.09c0,-137.22 19.64,-258.08 58.74,-362.79 39.26,-104.47 96.31,-192.64 171.65,-264.5 75.01,-72 165.8,-126.28 272.02,-162.99 106.05,-36.71 226.87,-55.04 362.63,-55.04 34.24,0 70.64,1.13 108.9,3.61 38.44,2.43 77.19,6.54 116.29,12.16 39.44,5.84 77.7,14.06 115.46,24.67 37.41,10.49 71.65,23.12 102.7,37.96 18.11,8.15 31.21,15.49 39.26,21.95 8.05,6.5 12.24,21.27 12.24,44.09l0 208.33c0,9.86 -2.01,19.97 -6.03,30.54 -4.03,10.74 -12.59,16.02 -25.85,16.02 -8.06,0 -15.95,-2.46 -23.32,-7.3 -7.22,-4.9 -13.42,-9.09 -18.3,-12.32 -53.86,-32.69 -113.09,-56.39 -177.53,-71.03 -64.6,-14.73 -128.03,-22.07 -189.96,-22.07 -86.58,0 -162.26,13.1 -226.71,39.23 -64.6,26.09 -117.96,63.26 -160.57,111.42 -42.3,48.2 -74.36,106.61 -95.5,175.23 -21.31,68.64 -31.71,144.65 -31.71,227.93 0,81.64 10.4,156.39 31.71,224.14 21.14,67.75 53.54,125.77 96.83,173.97 43.3,48.25 96.82,85.47 160.59,111.55 63.6,26.14 137.94,39.11 222.85,39.11 68.63,0 130.72,-8.48 186.25,-25.77 55.55,-17.11 113.61,-40.31 174.02,-69.68 8.22,-3.27 16.28,-6.96 24.51,-11.08 8.05,-4.05 16.27,-6.08 24.49,-6.08 22.83,0 34.23,12.97 34.23,39.23l0 205.82c0,19.59 -2.84,33.13 -8.55,40.4 -5.7,7.33 -16.78,15.06 -33.06,23.28 -29.37,18 -64.27,32.68 -104.21,44.17 -40.1,11.33 -80.88,20.31 -122.5,26.89 -41.61,6.46 -83.4,11.03 -125.01,13.52 -41.62,2.34 -79.54,3.59 -113.78,3.59 -272.84,0 -483.28,-69.01 -631.12,-207.02 -147.66,-138.06 -221.66,-345.1 -221.66,-621.14z"/>
  <path class="fil0" d="M2022.9 3597.46c84.91,0 151.53,-22.44 199.69,-67.41 48.16,-44.94 72.16,-110.68 72.16,-197.27 0,-34.26 -5.04,-67.7 -15.78,-100.43 -10.74,-32.71 -27.52,-62.88 -50.34,-90.69 -29.37,-34.27 -62.76,-55.54 -100.52,-63.68 -37.42,-8.15 -77.53,-12.2 -119.98,-12.2l-154.38 0 0 531.68 169.15 0zm-561.15 -725.34c0,-21.22 10.58,-31.88 31.88,-31.88l700.77 0c161.76,0 286.27,40.48 373.7,121.28 87.26,80.92 131.06,203.09 131.06,366.36 0,86.6 -13.59,160.93 -40.44,222.97 -26.85,62.05 -64.61,113.24 -112.77,153.17 -48.16,40.06 -105.71,69.51 -172.67,88.18 -66.96,18.8 -141.46,28.28 -223.02,28.28l-296.51 0 0 622.48c0,21.1 -10.58,31.66 -31.72,31.66l-328.4 0c-21.3,0 -31.88,-10.56 -31.88,-31.66l0 -1570.84z"/>
  <path class="fil0" d="M3342.36 3739.55l-176.36 -605.2 -198.35 605.2 374.71 0zm-886.86 705.79c0,-9.89 3.36,-22.99 9.73,-39.26l485.3 -1480.14c12.91,-42.41 28.87,-70.6 47.49,-84.49 18.97,-13.84 50.18,-20.68 94.48,-20.68l215.62 0c27.69,0 50.01,2.39 66.12,7.3 16.44,4.83 29.87,12.59 40.62,23.24 10.39,10.61 19.12,24.5 25.67,41.69 6.54,17.21 13.92,38.01 22.15,62.48l475.22 1448.12c1.68,3.36 3.2,7.34 4.87,12.26 1.67,4.9 3.35,9.01 4.86,12.2l0 12.2c0,13.26 -4.36,22.15 -13.42,27.11 -8.89,4.82 -19.29,7.25 -30.7,7.25l-323.37 0c-14.77,0 -25.34,-7.25 -31.88,-21.98l-147 -468.1 -500.07 0 -149.18 468.1c-6.71,14.73 -17.44,21.98 -32.04,21.98l-222.85 0c-9.74,0 -19.12,-1.67 -28.19,-4.95 -9.07,-3.18 -13.43,-11.41 -13.43,-24.33z"/>
  <path class="fil0" d="M4056.71 2872.12c0,-21.22 10.74,-31.88 31.88,-31.88l328.4 0c21.14,0 31.88,10.66 31.88,31.88l0 1315.81 556.12 0c21.13,0 31.88,10.62 31.88,31.88l0 223.15c0,21.1 -10.75,31.66 -31.88,31.66l-916.4 0c-21.14,0 -31.88,-10.56 -31.88,-31.66l0 -1570.84z"/>
 </g>
</svg>
