<?xml version="1.0" encoding="UTF-8"?>
<!DOCTYPE svg PUBLIC "-//W3C//DTD SVG 1.0//EN" "http://www.w3.org/TR/2001/REC-SVG-20010904/DTD/svg10.dtd">
<!-- Creator: CorelDRAW 2020 (64-Bit) -->
<?xml-stylesheet href="cpal2.css" type="text/css"?>
<svg xmlns="http://www.w3.org/2000/svg" xml:space="preserve" width="689px" height="178px" version="1.0" style="shape-rendering:geometricPrecision; text-rendering:geometricPrecision; image-rendering:optimizeQuality; fill-rule:evenodd; clip-rule:evenodd"
viewBox="0 0 435.39 112.24"
 xmlns:xlink="http://www.w3.org/1999/xlink"
 xmlns:xodm="http://www.corel.com/coreldraw/odm/2003">
 <g id="Capa_x0020_1">
  <metadata id="CorelCorpID_0Corel-Layer"/>
  <g id="_1797762937520">
   <path class="fil0" d="M98.87 52.53l35.07 0 0 2.4c0,32.41 -22.47,57.18 -51.58,57.31 -28.28,0.13 -52.17,-25.67 -51.6,-57.31l-30.76 0c0,-32.48 22.78,-54.81 49.44,-54.93 26.11,-0.12 48.77,23.03 49.43,52.53zm-33.07 1.35l0.02 0.45c0.01,0.2 0.01,0.4 0.01,0.6 0.02,0.21 0.07,0.4 0.14,0.59l0 0 0.02 0.45 0 0.04 0.03 0.42 0 0.02c0.22,3 1.1,5.8 2.47,8.21l0.04 0.07 0.13 0.23 0.09 0.15c0.2,0.34 0.42,0.67 0.64,0.99l0.03 0.04 0.22 0.31 0.01 0.02c0.15,0.2 0.31,0.4 0.46,0.6l0.08 0.09 0.15 0.19 0.11 0.13 0.18 0.21 0.08 0.08 0.17 0.19 0.14 0.16 0.13 0.13 0.14 0.14 0.17 0.17 0.1 0.11 0.24 0.23 0.04 0.03 0.23 0.21 0.09 0.09 0.21 0.17 0.1 0.09 0.23 0.19 0.07 0.06 0.23 0.18 0.11 0.09 0.19 0.14 0.16 0.11 0.16 0.12 0.18 0.12 0.16 0.11 0.15 0.1 0.22 0.14 0.13 0.08 0.18 0.11 0.17 0.1 0.2 0.12 0.14 0.07 0.21 0.12 0.14 0.07 0.22 0.11 0.19 0.1 0.14 0.06 0.23 0.11 0.15 0.06 0.19 0.08 0.21 0.09 0.12 0.04 0.26 0.1 0.12 0.05 0.25 0.09 0.04 0.01 0.29 0.1 0.03 0 0.24 0.08 0.12 0.03 0.08 0.03 0.32 0.08 0.07 0.02 0.15 0.04 0.23 0.05 0.01 0 0.34 0.07 0.06 0.02 0.35 0.06 0.05 0.01 0.36 0.05 0.04 0.01 0.37 0.05 0.04 0 0.38 0.04 0.37 0.02 0.05 0.01 0.02 0 0.4 0.01 0.01 0 0.42 0.01c9.09,0 16.45,-8.19 16.45,-18.28l32.92 0c0,32.47 -22.78,54.8 -49.44,54.92 -26.82,0.12 -49.99,-24.28 -49.43,-54.92 0,-10.1 7.36,-18.29 16.45,-18.29l0.42 0.01 0.01 0 0.4 0.01 0.02 0.01 0.04 0 0.38 0.03 0.38 0.03 0.03 0.01 0.38 0.04 0.04 0.01 0.36 0.05 0.05 0.01 0.35 0.07 0.06 0.01 0.33 0.07 0.02 0 0.23 0.06 0.15 0.03 0.07 0.02 0.32 0.09 0.08 0.02 0.12 0.04 0.24 0.07 0.03 0.01 0.29 0.09 0.03 0.01 0.26 0.09 0.12 0.05 0.26 0.1 0.12 0.05 0.2 0.08 0.19 0.08 0.16 0.07 0.23 0.1 0.14 0.07 0.19 0.09 0.21 0.11 0.15 0.08 0.21 0.11 0.14 0.08 0.2 0.11 0.17 0.1 0.18 0.11 0.13 0.08 0.22 0.14 0.15 0.1 0.16 0.11 0.18 0.13 0.16 0.11 0.16 0.11 0.19 0.14 0.11 0.09 0.23 0.18 0.07 0.06 0.23 0.19 0.1 0.09 0.21 0.17 0.09 0.09 0.23 0.21 0.04 0.04 0.24 0.22 0.1 0.11 0.17 0.17 0.14 0.14 0.13 0.14 0.14 0.15 0.17 0.19 0.08 0.09 0.18 0.21 0.11 0.13 0.15 0.19 0.08 0.09c0.15,0.19 0.31,0.39 0.46,0.59l0.01 0.02 0.22 0.31 0.03 0.05c0.22,0.32 0.44,0.64 0.64,0.98l0.09 0.15 0.13 0.23 0.04 0.07c1.37,2.41 2.25,5.21 2.47,8.21l0 0.02 0.03 0.42 0 0.04z" fill="#fff"/>
   <polygon class="fil1" points="435.39,103.51 377.1,103.51 377.1,8.74 399.19,8.74 399.19,86.18 435.39,86.18 " fill="#fff"/>
   <path class="fil1" d="M372.18 103.51l-21.96 0 -6.26 -24.86 -32 0 -6.19 24.86 -21.84 0 32.55 -94.77 23.9 0 31.8 94.77zm-32.86 -41.24l-9.67 -28.08c-0.81,-2.35 -1.21,-5.23 -1.51,-8.53l-0.49 0c-0.21,2.78 -0.65,5.56 -1.57,8.26l-9.77 28.35 23.01 0z" fill="#fff"/>
   <path class="fil1" d="M250.77 68.64l0 34.87 -22.09 0 0 -94.77 34.56 0c24.68,0 34.79,7.82 34.79,27.97 0,9.52 -1.31,17.21 -8.39,23.11 -7.06,5.88 -16.52,8.82 -28.36,8.82l-10.51 0zm0 -43.52l0 27.27 8.67 0c11.75,0 16.13,-4.96 16.13,-14.91 0,-9.73 -4.39,-12.36 -16.13,-12.36l-8.67 0z" fill="#fff"/>
   <path class="fil1" d="M221.05 100.12c-7.39,3.34 -17.01,5.01 -28.9,5.01 -15.52,0 -27.72,-4.26 -36.6,-12.81 -8.88,-8.56 -13.33,-19.95 -13.33,-34.19 0,-15.14 5,-27.44 14.99,-36.87 9.99,-9.43 22.93,-14.15 38.88,-14.15 9.87,0 18.2,1.18 24.96,3.52l0 20.58c-6.76,-3.79 -14.49,-5.68 -23.13,-5.68 -9.5,0 -17.15,2.79 -23,8.39 -5.82,5.6 -8.74,13.18 -8.74,22.72 0,9.19 2.75,16.47 8.26,21.91 5.48,5.44 12.9,8.17 22.21,8.17 8.88,0 17.01,-2.03 24.4,-6.09l0 19.49z" fill="#fff"/>
  </g>
 </g>
</svg>
