<?xml version="1.0" encoding="UTF-8"?>
<!DOCTYPE svg PUBLIC "-//W3C//DTD SVG 1.1//EN" "http://www.w3.org/Graphics/SVG/1.1/DTD/svg11.dtd">
<!-- Creator: CorelDRAW 2020 (64-Bit) -->
<svg xmlns="http://www.w3.org/2000/svg" xml:space="preserve" width="2142px" height="543px" version="1.1" style="shape-rendering:geometricPrecision; text-rendering:geometricPrecision; image-rendering:optimizeQuality; fill-rule:evenodd; clip-rule:evenodd"
viewBox="0 0 4510.07 1143.2"
 xmlns:xlink="http://www.w3.org/1999/xlink"
 xmlns:xodm="http://www.corel.com/coreldraw/odm/2003">
 <defs>
  <style type="text/css">
   <![CDATA[
    .fil0 {fill:#00438C}
    .fil1 {fill:#FFAE1F}
   ]]>
  </style>
 </defs>
 <g id="Capa_x0020_1">
  <metadata id="CorelCorpID_0Corel-Layer"/>
  <polygon class="fil0" points="4510.07,1099.46 3903.25,1099.46 3903.25,112.88 4133.21,112.88 4133.21,919.05 4510.07,919.05 "/>
  <path class="fil0" d="M3852.03 1099.46l-228.62 0 -65.17 -258.8 -333.13 0 -64.44 258.8 -227.36 0 338.86 -986.58 248.8 0 331.05 986.58 0.01 0zm-342.09 -429.32l-100.67 -292.32c-8.43,-24.46 -12.59,-54.45 -15.71,-88.8l-5.11 0c-2.18,28.94 -6.76,57.88 -16.34,85.99l-101.71 295.13 239.54 0 0 0z"/>
  <path class="fil0" d="M2588.11 736.45l0 363.01 -229.97 0 0 -986.58 359.78 0c256.93,0 362.18,81.4 362.18,291.17 0,99.11 -13.64,179.16 -87.34,240.59 -73.5,61.21 -171.98,91.81 -295.24,91.81l-109.41 0 0 0zm0 -453.05l0 283.89 90.25 0c122.32,0 167.92,-51.64 167.92,-155.22 0,-101.29 -45.7,-128.67 -167.92,-128.67l-90.25 0 0 0z"/>
  <path class="fil0" d="M2278.71 1064.17c-76.93,34.77 -177.08,52.16 -300.86,52.16 -161.57,0 -288.57,-44.35 -381.02,-133.36 -92.44,-89.11 -138.77,-207.69 -138.77,-355.93 0,-157.61 52.05,-285.66 156.05,-383.83 104,-98.17 238.71,-147.31 404.76,-147.31 102.75,0 189.47,12.29 259.84,36.65l0 214.24c-70.37,-39.45 -150.84,-59.13 -240.79,-59.13 -98.9,0 -178.54,29.05 -239.44,87.35 -60.58,58.29 -90.98,137.21 -90.98,236.52 0,95.67 28.63,171.46 85.99,228.09 57.05,56.63 134.29,85.05 231.21,85.05 92.45,0 177.08,-21.13 254.01,-63.4l0 202.9 0 0z"/>
  <g id="_2635563534368">
   <path class="fil0" d="M320.22 571.85l-64.55 0 -255.67 0c0,-338.13 237.15,-570.6 514.69,-571.85 271.5,-1.24 507.15,239.2 514.54,545.8l-0.1 33.56c-3.55,101.56 -78.75,182.79 -171.11,182.79l-4.37 -0.11 -0.11 0 -4.16 -0.1 -0.21 0 -0.52 -0.11 -3.85 -0.2 -3.96 -0.42 -0.41 0 -3.85 -0.52 -0.42 -0.1 -3.75 -0.52 -0.51 -0.11 -3.65 -0.62 -0.62 -0.21 -3.54 -0.73 -0.11 0 -2.39 -0.52 -1.56 -0.41 -0.73 -0.21 -3.33 -0.84 -0.84 -0.31 -1.24 -0.31 -2.5 -0.83 -0.32 0 -3.01 -1.05 -0.42 -0.1 -2.6 -0.94 -1.25 -0.52 -2.71 -1.04 -1.25 -0.42 -2.18 -0.93 -1.98 -0.84 -1.56 -0.62 -2.4 -1.15 -1.45 -0.62 -1.98 -1.04 -2.29 -1.15 -1.46 -0.73 -2.19 -1.24 -1.45 -0.73 -2.08 -1.25 -1.77 -1.04 -1.88 -1.15 -1.35 -0.83 -2.29 -1.46 -1.56 -1.04 -1.67 -1.15 -1.87 -1.25 -1.67 -1.24 -1.66 -1.15 -1.98 -1.46 -1.15 -0.93 -2.39 -1.88 -0.73 -0.62 -2.4 -1.98 -1.04 -0.94 -2.18 -1.77 -0.94 -0.94 -2.4 -2.18 -0.41 -0.32 -2.5 -2.39 -1.04 -1.15 -1.77 -1.77 -1.46 -1.45 -1.35 -1.36 -1.46 -1.66 -1.77 -1.98 -0.83 -0.83 -1.88 -2.19 -1.14 -1.35 -1.56 -1.98 -0.84 -0.94c-1.56,-2.08 -3.22,-4.16 -4.79,-6.24l-0.1 -0.21 -2.29 -3.23 -0.31 -0.42c-2.29,-3.33 -4.59,-6.76 -6.67,-10.3l-0.93 -1.56 -1.36 -2.4 -0.41 -0.73c-14.26,-25.08 -23.43,-54.23 -25.72,-85.46l0 -0.21 -0.31 -4.38 0 -0.41 -0.21 -4.69 0 0c-0.73,-1.97 -1.25,-3.95 -1.46,-6.14 0,-2.08 0,-4.16 -0.1,-6.24l-0.21 -4.69 0 0.02 0 -0.41 -0.31 -4.38 0 -0.21c-2.29,-31.23 -11.45,-60.38 -25.71,-85.47l-0.42 -0.72 -1.35 -2.4 -0.94 -1.56c-2.08,-3.54 -4.37,-6.87 -6.66,-10.2l-0.31 -0.52 -2.29 -3.23 -0.11 -0.21c-1.56,-2.08 -3.23,-4.16 -4.79,-6.14l-0.83 -0.94 -1.56 -1.97 -1.15 -1.36 -1.87 -2.18 -0.84 -0.94 -1.77 -1.98 -1.45 -1.56 -1.36 -1.46 -1.45 -1.45 -1.77 -1.78 -1.04 -1.14 -2.5 -2.29 -0.42 -0.42 -2.39 -2.18 -0.94 -0.94 -2.19 -1.77 -1.04 -0.94 -2.39 -1.98 -0.73 -0.62 -2.4 -1.87 -1.14 -0.94 -1.98 -1.46 -1.67 -1.15 -1.66 -1.14 -1.88 -1.35 -1.66 -1.15 -1.56 -1.04 -2.29 -1.46 -1.36 -0.83 -1.87 -1.15 -1.77 -1.04 -2.08 -1.15 -1.46 -0.83 -2.19 -1.15 -1.56 -0.83 -2.18 -1.14 -1.98 -0.94 -1.46 -0.73 -2.39 -1.04 -1.67 -0.73 -1.98 -0.83 -2.08 -0.84 -1.25 -0.52 -2.7 -1.04 -1.25 -0.52 -2.71 -0.93 -0.31 -0.11 -3.02 -0.94 -0.32 -0.1 -2.49 -0.73 -1.25 -0.41 -0.84 -0.21 -3.33 -0.94 -0.73 -0.21 -1.56 -0.31 -2.39 -0.63 -0.21 0 -3.44 -0.73 -0.62 -0.1 -3.64 -0.73 -0.52 -0.1 -3.75 -0.52 -0.41 -0.11 -3.96 -0.41 -0.31 -0.11 -3.96 -0.31 -3.96 -0.31 -0.41 0 -0.21 -0.11 -4.16 -0.1 -0.11 0 -4.37 -0.11c-94.63,0 -171.25,85.26 -171.25,190.41l-22.49 0z"/>
   <path class="fil1" d="M1051.64 571.35l64.55 0 255.67 0c0,338.13 -237.14,570.59 -514.68,571.84 -271.51,1.25 -507.16,-239.2 -514.55,-545.79l0.11 -33.56c3.54,-101.56 78.74,-182.79 171.1,-182.79l4.37 0.1 0.11 0 4.16 0.11 0.21 0 0.52 0.1 3.85 0.21 3.96 0.42 0.41 0 3.86 0.51 0.41 0.11 3.75 0.52 0.52 0.1 3.64 0.63 0.62 0.21 3.55 0.72 0.1 0 2.39 0.52 1.57 0.42 0.72 0.21 3.34 0.83 0.83 0.31 1.25 0.32 2.5 0.83 0.31 0 3.02 1.04 0.41 0.11 2.61 0.93 1.24 0.52 2.71 1.05 1.25 0.41 2.18 0.94 1.98 0.83 1.57 0.63 2.39 1.14 1.46 0.63 1.98 1.04 2.29 1.14 1.45 0.73 2.19 1.25 1.46 0.73 2.08 1.25 1.77 1.04 1.87 1.15 1.35 0.83 2.29 1.46 1.57 1.04 1.66 1.14 1.88 1.25 1.66 1.25 1.67 1.15 1.98 1.45 1.14 0.94 2.4 1.87 0.73 0.63 2.39 1.98 1.04 0.94 2.19 1.77 0.93 0.93 2.4 2.19 0.41 0.31 2.5 2.4 1.05 1.14 1.77 1.77 1.45 1.46 1.35 1.35 1.46 1.67 1.77 1.98 0.84 0.83 1.87 2.19 1.15 1.35 1.56 1.98 0.83 0.93c1.56,2.09 3.23,4.17 4.79,6.25l0.1 0.21 2.29 3.23 0.32 0.41c2.29,3.33 4.58,6.77 6.66,10.31l0.94 1.56 1.35 2.39 0.42 0.73c14.26,25.09 23.42,54.24 25.71,85.47l0 0.21 0.31 4.37 0 0.42 0.21 4.68 0 0c0.73,1.98 1.25,3.96 1.46,6.14 0,2.08 0,4.17 0.1,6.25l0.21 4.68 0 -0.01 0 0.41 0.31 4.37 0 0.21c2.29,31.23 11.45,60.38 25.72,85.47l0.41 0.73 1.35 2.39 0.94 1.57c2.08,3.53 4.37,6.87 6.66,10.2l0.32 0.52 2.29 3.22 0.1 0.21c1.56,2.08 3.23,4.17 4.79,6.14l0.83 0.94 1.57 1.98 1.14 1.35 1.88 2.19 0.83 0.94 1.77 1.98 1.46 1.56 1.35 1.45 1.46 1.46 1.77 1.77 1.04 1.15 2.5 2.29 0.41 0.41 2.4 2.19 0.93 0.94 2.19 1.77 1.04 0.93 2.4 1.98 0.72 0.63 2.4 1.87 1.14 0.94 1.98 1.46 1.67 1.14 1.67 1.15 1.87 1.35 1.67 1.15 1.56 1.04 2.29 1.46 1.35 0.83 1.87 1.14 1.77 1.05 2.09 1.14 1.45 0.84 2.19 1.14 1.56 0.83 2.19 1.15 1.97 0.94 1.46 0.73 2.4 1.04 1.66 0.73 1.98 0.83 2.08 0.83 1.25 0.52 2.71 1.04 1.25 0.52 2.7 0.94 0.32 0.11 3.02 0.93 0.31 0.11 2.5 0.73 1.25 0.41 0.83 0.21 3.33 0.94 0.73 0.21 1.56 0.31 2.39 0.62 0.21 0 3.44 0.73 0.62 0.11 3.65 0.72 0.52 0.11 3.74 0.52 0.42 0.1 3.95 0.42 0.32 0.1 3.95 0.32 3.96 0.31 0.41 0 0.21 0.1 4.17 0.11 0.1 0 4.37 0.1c94.64,0 171.25,-85.25 171.25,-190.4l22.49 0z"/>
  </g>
 </g>
</svg>
