<?xml version="1.0" encoding="UTF-8"?>
<!DOCTYPE svg PUBLIC "-//W3C//DTD SVG 1.1//EN" "http://www.w3.org/Graphics/SVG/1.1/DTD/svg11.dtd">
<!-- Creator: CorelDRAW 2020 (64-Bit) -->
<svg xmlns="http://www.w3.org/2000/svg" xml:space="preserve" width="3866px" height="2072px" version="1.1" style="shape-rendering:geometricPrecision; text-rendering:geometricPrecision; image-rendering:optimizeQuality; fill-rule:evenodd; clip-rule:evenodd"
viewBox="0 0 5572.86 2987.55"
 xmlns:xlink="http://www.w3.org/1999/xlink"
 xmlns:xodm="http://www.corel.com/coreldraw/odm/2003">
 <defs>
  <style type="text/css">
   <![CDATA[
    .fil0 {fill:#014694;fill-rule:nonzero}
    .fil1 {fill:#F18700;fill-rule:nonzero}
   ]]>
  </style>
 </defs>
 <g id="Capa_x0020_1">
  <metadata id="CorelCorpID_0Corel-Layer"/>
  <path class="fil0" d="M3369.67 1103.41c0,-203.13 164.87,-367.86 367.88,-367.86 203.14,0 367.78,164.73 367.78,367.86 0,203.13 164.64,367.78 367.78,367.78 203.24,0 367.89,-164.65 367.89,-367.78l-0.12 0c0,-609.39 -493.93,-1103.41 -1103.33,-1103.41 -579.05,0 -1053.68,445.97 -1099.64,1013.06 -1.9,24.17 5.57,45.59 21.86,63.38 16.4,17.82 37.26,26.97 61.46,26.97l648.44 0z"/>
  <path class="fil1" d="M4840.66 1103.41c0,203.13 -164.64,367.8 -367.77,367.8 -203.24,0 -367.78,-164.67 -367.78,-367.8 0,-203.13 -164.65,-367.75 -367.89,-367.75 -203.12,0 -367.77,164.62 -367.77,367.75l0 0.03c0,609.36 494.05,1103.33 1103.44,1103.33 578.94,0 1053.8,-445.89 1099.65,-1013 2,-24.16 -5.47,-45.69 -21.87,-63.39 -16.4,-17.85 -37.15,-26.97 -61.35,-26.97l-648.66 0z"/>
  <path class="fil0" d="M0 2437.03c0,-91.22 13.05,-171.56 39.04,-241.17 26.1,-69.44 64.03,-128.05 114.11,-175.82 49.86,-47.86 110.21,-83.94 180.83,-108.35 70.5,-24.4 150.81,-36.58 241.05,-36.58 22.76,0 46.96,0.75 72.4,2.39 25.55,1.62 51.31,4.35 77.3,8.09 26.22,3.88 51.65,9.35 76.75,16.4 24.87,6.97 47.63,15.36 68.27,25.23 12.04,5.42 20.75,10.3 26.1,14.59 5.35,4.32 8.14,14.14 8.14,29.31l0 138.49c0,6.55 -1.34,13.27 -4.01,20.3 -2.68,7.14 -8.37,10.65 -17.18,10.65 -5.36,0 -10.61,-1.64 -15.51,-4.85 -4.8,-3.26 -8.92,-6.04 -12.16,-8.2 -35.8,-21.72 -75.18,-37.48 -118.02,-47.21 -42.94,-9.79 -85.1,-14.67 -126.27,-14.67 -57.56,0 -107.87,8.71 -150.7,26.08 -42.95,17.34 -78.42,42.05 -106.75,74.06 -28.12,32.05 -49.42,70.87 -63.48,116.49 -14.16,45.63 -21.08,96.15 -21.08,151.51 0,54.27 6.92,103.96 21.08,149 14.06,45.04 35.59,83.6 64.37,115.65 28.78,32.07 64.36,56.81 106.75,74.15 42.28,17.37 91.69,25.99 148.14,25.99 45.62,0 86.9,-5.63 123.81,-17.12 36.93,-11.38 75.52,-26.8 115.68,-46.32 5.46,-2.18 10.82,-4.63 16.29,-7.37 5.35,-2.69 10.82,-4.04 16.28,-4.04 15.18,0 22.76,8.62 22.76,26.08l0 136.81c0,13.03 -1.89,22.03 -5.69,26.86 -3.79,4.88 -11.15,10.01 -21.97,15.47 -19.53,11.97 -42.73,21.73 -69.28,29.37 -26.66,7.53 -53.76,13.5 -81.43,17.87 -27.66,4.3 -55.44,7.34 -83.1,8.99 -27.67,1.56 -52.87,2.39 -75.63,2.39 -181.38,0 -321.26,-45.87 -419.54,-137.62 -98.16,-91.78 -147.35,-229.4 -147.35,-412.9z"/>
  <path class="fil0" d="M1344.72 2391.41c56.44,0 100.73,-14.92 132.75,-44.81 32.01,-29.87 47.96,-73.57 47.96,-131.14 0,-22.77 -3.35,-45 -10.49,-66.76 -7.13,-21.74 -18.29,-41.8 -33.46,-60.28 -19.53,-22.79 -41.72,-36.93 -66.82,-42.33 -24.88,-5.42 -51.54,-8.12 -79.76,-8.12l-102.62 0 0 353.44 112.44 0zm-373.02 -482.17c0,-14.11 7.03,-21.19 21.19,-21.19l465.83 0c107.53,0 190.3,26.91 248.42,80.62 58.01,53.79 87.12,135 87.12,243.53 0,57.57 -9.03,106.98 -26.88,148.23 -17.85,41.24 -42.95,75.27 -74.96,101.82 -32.02,26.62 -70.28,46.2 -114.79,58.61 -44.5,12.5 -94.03,18.8 -148.24,18.8l-197.11 0 0 413.79c0,14.03 -7.03,21.05 -21.09,21.05l-218.3 0c-14.16,0 -21.19,-7.02 -21.19,-21.05l0 -1044.21z"/>
  <path class="fil0" d="M2221.83 2485.87l-117.23 -402.31 -131.86 402.31 249.09 0zm-589.54 469.17c0,-6.58 2.23,-15.28 6.47,-26.1l322.6 -983.93c8.59,-28.18 19.19,-46.92 31.57,-56.16 12.61,-9.2 33.36,-13.75 62.8,-13.75l143.34 0c18.41,0 33.25,1.59 43.95,4.86 10.93,3.2 19.86,8.36 27,15.45 6.91,7.05 12.71,16.28 17.07,27.71 4.35,11.44 9.25,25.27 14.72,41.53l315.9 962.64c1.12,2.23 2.13,4.88 3.24,8.15 1.11,3.26 2.23,5.99 3.23,8.11l0 8.11c0,8.81 -2.9,14.72 -8.92,18.02 -5.91,3.2 -12.82,4.82 -20.41,4.82l-214.95 0c-9.82,0 -16.85,-4.82 -21.2,-14.61l-97.71 -311.17 -332.42 0 -99.18 311.17c-4.45,9.79 -11.59,14.61 -21.3,14.61l-148.14 0c-6.46,0 -12.7,-1.11 -18.73,-3.29 -6.03,-2.12 -8.93,-7.58 -8.93,-16.17z"/>
  <path class="fil0" d="M2696.7 1909.24c0,-14.11 7.13,-21.19 21.19,-21.19l218.3 0c14.05,0 21.19,7.08 21.19,21.19l0 874.68 369.68 0c14.05,0 21.19,7.06 21.19,21.19l0 148.34c0,14.03 -7.14,21.05 -21.19,21.05l-609.17 0c-14.06,0 -21.19,-7.02 -21.19,-21.05l0 -1044.21z"/>
 </g>
</svg>
