<?xml version="1.0" encoding="UTF-8"?>
<!DOCTYPE svg PUBLIC "-//W3C//DTD SVG 1.1//EN" "http://www.w3.org/Graphics/SVG/1.1/DTD/svg11.dtd">
<!-- Creator: CorelDRAW 2020 (64-Bit) -->
<svg xmlns="http://www.w3.org/2000/svg" xml:space="preserve" width="4340px" height="2686px" version="1.1" style="shape-rendering:geometricPrecision; text-rendering:geometricPrecision; image-rendering:optimizeQuality; fill-rule:evenodd; clip-rule:evenodd"
viewBox="0 0 12558.46 7771.03"
 xmlns:xlink="http://www.w3.org/1999/xlink"
 xmlns:xodm="http://www.corel.com/coreldraw/odm/2003">
 <defs>
  <style type="text/css">
   <![CDATA[
    .fil0 {fill:#F49A2D;fill-rule:nonzero}
   ]]>
  </style>
 </defs>
 <g id="Capa_x0020_1">
  <metadata id="CorelCorpID_0Corel-Layer"/>
  <g id="_1875875496336">
   <path class="fil0" d="M3434.73 6.59c-1050.12,84.39 -1976.06,464.17 -2607.82,1073.03 -188.08,179.64 -300.21,312.26 -421.98,496.72 -308.64,465.38 -448.5,997.07 -393.04,1502.24 131.42,1209.26 1234.58,2214.78 2781.43,2535.48 200.14,40.99 421.98,71.13 635.38,84.39 113.33,7.24 217.01,15.68 231.48,18.09 27.73,4.82 607.65,526.87 1359.97,1221.32 440.06,406.3 478.64,435.24 591.97,435.24 75.96,0 173.62,-47.02 218.23,-103.68 37.37,-49.44 49.43,-139.86 27.73,-200.14 -13.27,-38.58 -20.5,-139.86 -72.34,-1094.73 -14.47,-255.6 -32.55,-560.63 -42.2,-677.57l-15.67 -213.41 -66.31 -107.3c-79.57,-127.79 -157.94,-284.53 -212.2,-420.77 -21.7,-54.25 -45.81,-101.27 -54.25,-103.68 -26.53,-10.85 -106.1,25.31 -147.09,65.1 -22.91,21.7 -49.43,62.69 -60.28,91.63 -25.32,66.31 -20.5,182.05 30.14,636.58 42.19,370.14 67.51,642.62 85.6,904.24 6.02,98.86 14.46,221.84 19.28,273.68 3.62,53.05 1.21,95.25 -4.82,98.87 -6.03,3.61 -308.64,-273.69 -670.34,-617.29 -362.9,-342.41 -679.98,-634.17 -705.3,-648.64 -40.99,-21.7 -74.75,-26.53 -291.77,-33.76 -286.94,-9.64 -429.21,-22.91 -637.78,-56.67 -1191.18,-195.31 -2125.56,-871.68 -2411.3,-1746.98 -62.69,-190.5 -86.81,-343.61 -86.81,-548.57 0,-204.96 24.12,-358.08 86.81,-548.57 272.47,-834.31 1130.9,-1486.57 2254.56,-1712.02 311.06,-62.7 456.94,-75.96 825.87,-77.17 355.66,-1.2 479.85,8.44 765.59,60.29 535.3,97.66 1035.65,296.59 1428.69,569.06 261.63,180.85 509.99,423.19 653.46,637.79 22.91,33.76 50.64,65.11 60.29,68.72 10.85,4.82 69.92,-21.7 141.06,-63.9 66.31,-38.58 188.08,-103.68 270.06,-144.67 120.57,-60.29 147.09,-78.37 147.09,-100.07 0,-69.93 -374.96,-483.47 -602.82,-665.52 -587.15,-467.79 -1344.3,-765.59 -2212.37,-869.28 -183.26,-21.7 -714.95,-32.55 -898.2,-18.08z"/>
   <path class="fil0" d="M2857.22 1136.28c-22.91,19.29 -28.93,49.43 -51.84,231.49 -22.91,194.1 -24.11,210.98 -6.03,224.25 10.85,8.44 73.55,18.08 137.45,21.7 344.81,22.91 602.82,119.36 689.63,255.6 125.39,198.93 38.58,442.47 -203.75,571.48 -42.2,22.9 -115.75,56.66 -162.77,73.54 -79.57,31.35 -84.39,34.96 -88.01,73.54 -2.41,22.91 13.26,132.62 33.76,244.75 19.29,112.12 36.17,207.37 36.17,213.4 0,4.82 8.43,18.09 19.29,27.73 24.11,25.32 289.35,27.73 321.91,3.62 15.67,-10.85 27.73,-56.67 44.6,-183.26 13.27,-92.84 24.12,-168.79 24.12,-170 0,-1.21 44.61,-27.73 100.07,-56.67 195.31,-107.3 356.87,-239.92 442.47,-362.9 161.56,-236.3 185.67,-530.48 63.9,-772.82 -96.45,-188.08 -358.08,-317.09 -763.17,-373.75 -96.46,-13.26 -500.35,-42.2 -598.01,-42.2 -8.44,0 -25.31,9.65 -39.78,20.5l-0.01 0z"/>
   <path class="fil0" d="M8920.43 1401.52c-637.79,30.14 -1323.8,218.23 -1828.97,501.56 -725.8,407.51 -1185.16,976.57 -1332.24,1651.74 -22.91,104.89 -26.53,159.14 -26.53,370.13 0,209.78 3.62,265.24 26.53,368.93 133.82,617.29 540.13,1152.6 1177.92,1554.08 114.53,72.34 120.56,78.37 119.36,115.75 0,22.9 -31.35,186.87 -68.72,366.51 -37.38,178.44 -95.25,460.56 -129.01,626.94 -67.52,339.99 -83.19,402.68 -121.77,509.99 -22.91,66.31 -25.32,80.77 -12.06,122.97 43.41,147.09 226.66,223.05 372.55,156.74 28.93,-13.27 302.61,-194.11 608.85,-402.69 306.24,-207.37 733.03,-494.32 948.84,-637.79l391.84 -260.42 186.88 -7.23c271.27,-10.85 453.32,-27.73 651.05,-61.49 689.63,-115.75 1306.92,-379.78 1778.33,-760.77 133.83,-107.3 356.87,-331.55 441.27,-443.68 502.75,-658.28 591.97,-1420.25 247.15,-2121.94 -513.6,-1045.29 -1919.39,-1721.67 -3431.27,-1649.33l0 0zm2584.91 1168.28c10.85,3.61 19.29,13.26 19.29,19.28 0,10.86 -249.57,312.27 -1058.56,1277.99 -115.75,138.65 -213.4,250.78 -218.22,250.78 -9.65,0 -65.11,-22.91 -736.66,-313.47 -295.38,-127.8 -655.87,-283.33 -801.75,-346.02 -145.88,-61.49 -272.48,-120.57 -282.12,-130.21 -37.38,-37.38 -51.84,-32.55 1915.77,-500.35 195.32,-47.02 520.84,-124.18 723.39,-173.61 377.37,-91.63 406.31,-96.45 438.86,-84.39zm313.47 1046.5c110.92,462.97 197.73,845.16 194.11,848.78 -7.24,7.23 -2.42,10.85 -639,-441.27 -278.5,-197.73 -507.57,-367.72 -509.99,-377.37 -1.2,-9.64 147.09,-196.52 330.35,-414.74 399.07,-477.44 402.69,-481.06 414.75,-467.8 4.82,4.83 100.07,388.22 209.78,852.4zm-3778.51 -798.14c31.35,16.88 68.72,49.43 90.43,79.57l36.16 53.05 3.62 1032.04c2.41,713.74 0,1046.5 -9.64,1077.85 -16.88,60.28 -67.52,116.94 -126.6,143.47 -44.61,20.5 -90.42,22.91 -582.33,22.91 -454.53,0 -540.13,-2.41 -578.71,-18.09 -56.67,-24.11 -95.24,-60.28 -124.18,-116.94 -21.7,-43.41 -22.91,-86.81 -22.91,-1088.7 0,-1000.69 1.21,-1045.3 22.91,-1088.7 27.73,-54.26 55.46,-79.57 109.71,-103.69 34.97,-15.67 129.01,-18.09 584.74,-19.29 540.13,0 543.75,0 596.8,26.53l0 -0.01zm912.68 918.7c283.33,122.98 520.84,230.28 526.87,238.72 6.03,10.85 -3.62,43.41 -28.94,92.84 -80.78,161.55 -594.38,1129.69 -606.44,1144.16 -6.03,8.44 -16.88,10.85 -21.7,6.03 -4.82,-4.83 -74.75,-286.95 -155.53,-624.53 -79.57,-338.79 -159.14,-671.55 -176.02,-741.47 -45.82,-190.5 -77.17,-325.53 -77.17,-331.56 0,-14.46 51.85,6.03 538.93,215.81zm1866.34 63.9c26.53,18.09 224.26,157.94 440.07,311.06 215.81,153.12 455.73,323.11 534.1,378.57 78.37,55.46 137.44,106.1 132.62,110.93 -10.85,10.85 -231.48,65.1 -841.54,209.78 -151.91,36.17 -607.65,144.67 -1012.74,241.13 -1118.85,266.45 -1093.53,261.62 -1106.79,248.36 -6.03,-6.03 97.66,-215.81 272.48,-544.95 155.53,-294.18 302.61,-575.1 327.94,-623.32 25.31,-49.44 53.04,-91.63 60.28,-94.05 7.23,-3.61 151.91,54.26 321.91,127.8 168.79,72.34 318.29,132.63 331.55,132.63 15.67,0 95.25,-85.61 244.75,-265.25 122.97,-145.88 227.87,-265.24 235.1,-265.24 7.24,0 33.76,14.47 60.28,32.55l-0.01 0z"/>
   <path class="fil0" d="M7019.12 2924.26c-36.17,14.46 -47.02,56.66 -20.49,85.6 19.28,21.7 40.99,22.91 431.62,22.91 353.25,0 415.94,-2.42 438.85,-19.29 32.55,-22.91 34.97,-72.34 3.62,-89.22 -28.94,-14.47 -815.02,-15.68 -853.6,0l0 0z"/>
   <path class="fil0" d="M6847.92 3182.27c-9.65,12.05 -12.06,213.4 -10.85,743.88l3.61 728.21 602.83 0 602.82 0 0 -741.47 0 -741.47 -591.97 -3.62c-489.5,-2.41 -594.39,0 -606.44,14.47l0 0z"/>
   <path class="fil0" d="M7394.07 4854.5c-66.31,19.29 -114.53,95.25 -103.68,163.97 6.03,39.79 54.25,84.39 108.51,101.27 42.19,12.06 57.87,10.85 106.09,-7.23 129.01,-49.43 135.03,-202.55 9.65,-254.39 -44.61,-19.29 -66.31,-19.29 -120.57,-3.62l0 0z"/>
   <path class="fil0" d="M3259.91 3578.92c-162.76,54.26 -279.71,191.7 -307.44,364.11 -14.47,86.81 2.41,204.96 37.37,273.68 38.59,74.75 113.34,149.5 183.26,178.44 88.02,38.58 249.57,38.58 348.44,1.21 96.45,-37.38 191.7,-126.6 241.13,-227.87 37.37,-75.96 39.78,-88.01 39.78,-213.4 0,-115.75 -3.61,-139.86 -28.93,-186.88 -36.17,-69.93 -102.48,-139.85 -163.97,-172.41 -60.28,-31.34 -272.48,-42.19 -349.64,-16.88z"/>
  </g>
 </g>
</svg>
