<?xml version="1.0" encoding="UTF-8"?>
<!DOCTYPE svg PUBLIC "-//W3C//DTD SVG 1.1//EN" "http://www.w3.org/Graphics/SVG/1.1/DTD/svg11.dtd">
<!-- Creator: CorelDRAW 2020 (64-Bit) -->
<svg xmlns="http://www.w3.org/2000/svg" xml:space="preserve" width="530px" height="512px" version="1.1" style="shape-rendering:geometricPrecision; text-rendering:geometricPrecision; image-rendering:optimizeQuality; fill-rule:evenodd; clip-rule:evenodd"
viewBox="0 0 229.39 221.5"
 xmlns:xlink="http://www.w3.org/1999/xlink"
 xmlns:xodm="http://www.corel.com/coreldraw/odm/2003">
 <defs>
  <style type="text/css">
   <![CDATA[
    .fil1 {fill:#00438C}
    .fil2 {fill:#04539D}
    .fil3 {fill:#232532}
    .fil6 {fill:#454C5B}
    .fil8 {fill:#565A65}
    .fil4 {fill:#C8C7C6}
    .fil9 {fill:#DDDDDD}
    .fil7 {fill:#E7B994}
    .fil0 {fill:#F7F7F7}
    .fil5 {fill:#FBCA9D}
   ]]>
  </style>
 </defs>
 <g id="Capa_x0020_1">
  <metadata id="CorelCorpID_0Corel-Layer"/>
  <path class="fil0" d="M178.11 37.72l11.86 38.04c1.32,4.24 3.44,7.52 6.7,10.41l15.7 13.9c5,4.42 7.62,10.18 7.79,17.06 0.16,6.89 -2.18,12.99 -6.95,18.08l-24.83 26.52c-3.4,3.62 -5.44,7.57 -6.44,12.41l-3.72 18.07c-1.4,6.85 -5.07,12.31 -10.86,16.18 -5.79,3.88 -12.08,5.08 -18.64,3.57l-37.55 -8.67c-4.3,-0.99 -8.25,-0.81 -12.54,0.59l-20.86 6.8c-12.37,4.04 -25.24,-2.55 -29.08,-14.89l-11.86 -38.04c-1.33,-4.24 -3.44,-7.52 -6.7,-10.41l-15.7 -13.9c-5,-4.42 -7.63,-10.18 -7.79,-17.07 -0.17,-6.88 2.18,-12.98 6.95,-18.07l24.83 -26.52c3.39,-3.62 5.44,-7.57 6.44,-12.42l3.71 -18.07c1.41,-6.84 5.08,-12.3 10.87,-16.18 5.79,-3.87 12.08,-5.07 18.63,-3.56l37.56 8.67c4.29,0.99 8.25,0.8 12.53,-0.59l20.87 -6.8c12.37,-4.04 25.24,2.55 29.08,14.89z"/>
  <path class="fil1" d="M135.45 90.73l-2.48 1.01c0.03,2.15 0.72,4.27 1.08,6.13 1.15,6.05 3.31,13.96 2.83,19.32 -0.39,4.37 -0.7,9.04 -1.33,13.58 -0.34,2.44 -2.01,11.57 -1.83,13.12 7.99,1.66 25.36,3.99 32.65,4.38 -0.06,-2.43 -1.22,-7.89 -1.34,-12.89 -0.12,-4.73 0.13,-8.85 0.61,-13.36 0.79,-7.52 0.81,-6.11 5.02,-9.12 2.8,-2.01 6.05,-4 8.32,-6 -0.2,-1.03 -0.86,-1.47 -1.37,-2.43 -1.16,-1.73 -2.07,-3.12 -3.16,-4.71 -0.97,-1.4 -2.02,-3.27 -3.2,-4.68 -0.44,-0.94 -1.16,0.03 -3.3,1.26 -1.08,0.63 -2.59,1.27 -3.7,1.66l-8.2 2.45c-2.19,0.53 -7.49,1.1 -8.3,-1.63 -0.33,-1.12 0.01,-2.86 -0.56,-4.78 -0.41,-1.38 -0.67,-2.82 -1.24,-4.17l-0.91 -0.16c-1.87,-0.21 -3.46,-0.05 -5.14,0.16 -1.72,0.22 -2.97,0.66 -4.45,0.86z"/>
  <path class="fil2" d="M136.43 144.42c3.15,0.57 7.09,1.19 11.13,1.76 0.67,0.03 1.45,0.16 2.26,0.31 1.36,0.19 2.72,0.36 4.05,0.53 0.21,-0.01 0.4,-0.04 0.58,-0.08 -1.27,-1.05 -7.01,-1.07 -9.07,-1.35 -1.59,-0.22 -2.59,-0.68 -4.12,-0.75 -1.75,-0.09 -3.1,-0.32 -4.83,-0.42z"/>
  <path class="fil1" d="M36.07 131.71l-0.28 0.72c1.25,1.39 3.64,3.86 4.33,4.99 1.42,0.64 3.24,-2.12 4.6,-2.41 0.33,-0.57 0.04,-0.41 0.72,-0.62 0.37,0.68 -1.02,24.42 -0.18,28.83l32.35 -0.6c0.46,-1.56 -1.03,-7.48 -1.34,-9.35 -0.55,-3.33 -1.15,-6.46 -1.37,-9.9 -0.46,-7.27 -0.44,-5.9 5.29,-11.57 1.16,-1.14 2.39,-1.58 1.63,-3.43 -0.67,-2.13 -1.71,-4.78 -2.82,-6.4 -0.34,-1.08 0.2,-0.36 -0.56,-0.8 -1.21,0.76 -1.25,2.49 -5.23,5.25 -1.27,0.89 -0.77,0.49 -1.48,2 -4.07,8.7 -21.47,8.19 -25.42,0.25 -0.89,-1.78 -0.29,-2.9 -1.38,-2.96 -2.07,-0.13 -7.73,4.98 -8.86,6z"/>
  <path class="fil1" d="M101.75 38.13c-0.93,-0.15 -1.96,-1.43 -2.71,-2.13 -6.13,-5.64 -15.97,-11.6 -24.66,-11.93 0.37,1.01 7.43,7.98 8.81,9.42 9.19,9.63 14.81,16.65 22.66,27.11 0.58,0.77 1.12,2.03 2.12,2.42l2.83 -9.18c4.08,-11.62 8.86,-22.75 15.4,-33 5.07,-7.96 7.03,-10.45 12.75,-17.61 0.63,-0.78 2.41,-2.62 2.72,-3.23 -2.16,-0.04 -11.01,5.11 -12.93,6.33 -10.13,6.47 -17.96,14.75 -23.83,25.15 -1.3,2.3 -2.01,4.34 -3.16,6.65z"/>
  <path class="fil3" d="M53.46 218.14c-8.87,0.17 -18.27,-0.07 -26.95,0.41 -8.5,0.47 -18.59,-0.3 -26.51,1.02 4.82,2.88 181.47,1.79 196.6,1.45 5.35,-0.11 11.1,-0.29 16.47,-0.39l12.27 -0.47c1.22,-0.06 3.07,0.02 4.05,-0.67 -12.28,-0.85 -24.83,-0.93 -37.33,-1.15 -41.66,-0.74 -85.41,-0.58 -126.93,-0.35 -5.6,0.03 -2.21,-0.4 -7.01,-3.74 -4.12,-2.87 -3.7,0.78 -4.66,3.89z"/>
  <path class="fil4" d="M136.43 144.42c-0.08,-0.01 -0.16,-0.01 -0.25,-0.02 0.45,2.72 -1.4,9.48 -1.76,12.32 -0.27,2.19 -0.42,4.3 -0.82,6.42 -0.4,2.11 -0.87,4.02 -1.08,6.23 0.92,0.47 0.82,0.58 1.35,1.05l0.44 0.34c1.89,1.3 1.76,0.84 2.01,0.4 0.22,1.28 -0.03,0.25 0.32,0.74l7.43 5.08c0.05,0.03 0.11,0.08 0.15,0.11l4.34 2.9c0.04,0.02 0.11,0.07 0.15,0.1l0.39 0.27c0.8,0.51 -0.32,-0.23 0.62,0.32l2.43 1.54c0.28,0.17 0.26,0.23 0.77,0.56l4.85 3.13c1.02,0.59 0.52,0.46 1.5,1.16 0.6,0.43 1.15,0.68 2.02,0.81 2.25,-3.75 1.25,-2.52 -0.58,-5.18 -1.96,-2.85 -1.67,-1.41 -2.99,-3.14l-8.65 -9.72c-0.04,-0.04 -0.1,-0.1 -0.13,-0.14 -0.3,-0.29 -0.66,-0.56 -0.93,-0.92 -0.47,-0.64 -0.22,-0.71 -0.79,-1.36 -1.92,-2.21 -3.69,-0.53 0.13,-7.31 0.74,-1.31 0.92,-2.32 0.86,-3.4l-1.85 -10.7 0.26 0.04c-1.35,-0.22 -9.14,-1.44 -10.19,-1.63z"/>
  <path class="fil5" d="M171.25 95.08c1.18,1.41 2.23,3.28 3.2,4.68 1.09,1.59 2,2.98 3.16,4.71 0.01,-1.34 -0.32,-0.02 1.47,-2.29l12.16 -14.72c4.76,-5.46 16.18,-11.28 12.55,-17.04 -1.19,-1.89 -2.62,-2.36 -5.27,-1.5 -4.39,1.42 -10.17,7.17 -13.04,10.1l-7.11 8.06c-0.65,0.84 -1.03,1.35 -1.62,2.12l-3.52 4.19c-2,2.34 -0.83,2.03 -1.98,1.69z"/>
  <path class="fil5" d="M135.45 90.73c1.48,-0.2 2.73,-0.64 4.45,-0.86 1.68,-0.21 3.27,-0.37 5.14,-0.16 0.35,-1.88 -0.17,-3.09 -0.44,-4.76 -0.59,-3.68 -0.92,-12.4 -0.56,-16.05 0.35,-3.62 3.51,-16.18 -4.4,-15.94 -8.09,0.24 -5.51,30.7 -4.19,37.77z"/>
  <path class="fil6" d="M40.16 111.96c0.59,-0.7 0.48,0.94 0.49,-0.98 0.4,0.25 0.47,0.18 0.81,1.26 0.79,2.57 0.59,2.37 1.95,5.17 0.69,1.42 2.72,4.87 4.19,5.49l-0.3 0.82c2.24,-0.5 5.01,-2.06 7.28,-2.4 -0.16,-1.07 -3.04,-4.61 -4.27,-6.5 -1.58,-2.4 -2.09,-5.55 -0.35,-7.92 5.99,0.75 9.33,1.35 13.86,-2.31 6.26,-9.15 -6.26,-9.77 -12.46,-6.98 -5.71,2.57 -10.68,8.7 -11.2,14.35z"/>
  <path class="fil5" d="M79 121.97c1.11,1.62 2.15,4.27 2.82,6.4l-0.09 -0.98c3.27,-2.68 4.42,-3.69 6.98,-7.02 2.04,-2.65 3.66,-5.45 4.94,-8.87 1.35,-3.57 2.11,-7.36 2.08,-11.78 -0.03,-6.2 -0.77,-14.56 -7.93,-12.71 -1.6,0.41 -2.6,2.16 -3.04,3.83 -0.61,2.28 0.31,3.94 0.82,5.79 2.16,7.9 2.59,15.76 -2.72,22.14l-2.55 2.51c-0.9,0.76 -0.06,0.47 -1.31,0.69z"/>
  <path class="fil5" d="M40.12 137.42c-0.69,-1.13 -3.08,-3.6 -4.33,-4.99l0.28 -0.72c-0.71,0.63 -0.17,0.21 -0.26,0.89 -0.14,1.07 -0.59,1.14 -2.17,2.69 -1.33,1.31 -2,2.33 -3.11,3.8 -4.28,5.69 -6.64,12.92 -6.53,20.51 0.04,3.14 0.99,9.32 2.55,11.16 1.78,2.11 6.68,2.87 8.43,-1.92 0.77,-2.1 0.08,-3.77 -0.49,-5.49 -2.49,-7.48 -3.06,-15.67 1.53,-22.23 0.86,-1.23 2.47,-2.54 3.17,-3.76l0.93 0.06z"/>
  <path class="fil6" d="M153.89 79.44c3.63,2.52 8.72,3.07 13.83,3.17 -0.52,2.81 -2.86,3.96 -2.48,6.95 1.49,-0.8 1.54,-1.92 3.95,-2.44 6.17,-0.76 2.35,-2.36 4.49,-5.24 0.04,-0.05 3.62,-3.11 1.26,-5.74 -1.21,-1.33 -2.5,-0.47 -4.11,-2.28 -2.16,-2.44 -0.91,-4.6 -5.76,-3.8 -3,0.5 -2.8,-3.55 -6.99,-0.89l-0.08 3.13c-1.62,1.48 -3.57,0.98 -4.72,2.2 -1.34,1.43 -0.6,3.67 0.61,4.94z"/>
  <path class="fil5" d="M54.58 121.32c1.42,-0.93 6.64,0.55 11.69,-2.64l2.66 -2.31 -0.32 -0.08c0.47,-2.03 1.16,-2.17 0.36,-4.6 0.34,-0.19 -0.31,-0.42 0.83,-0.12 -0.98,-0.77 -1.47,-0.35 -3.81,-2.6 -1.06,-1.03 -2.27,-2.25 -2.76,-3.66l0.59 -0.72c-4.53,3.66 -7.87,3.06 -13.86,2.31 -1.74,2.37 -1.23,5.52 0.35,7.92 1.23,1.89 4.11,5.43 4.27,6.5z"/>
  <path class="fil5" d="M165.12 92.76c-0.61,0.11 -1.04,-0.27 -1.46,-0.8l-0.31 -0.48c-0.03,-0.05 -0.07,-0.12 -0.09,-0.17 -1.92,-3.55 0.47,-4.45 -0.67,-5.35 -0.06,-0.04 -0.13,-0.12 -0.2,-0.17 -0.98,-0.71 -2.74,-0.8 -3.99,-1.32 -0.61,-0.26 -1.16,-0.66 -1.91,-1.05 -2.21,-1.16 -1.09,0.26 -2.29,-1.46 -1.05,-1.5 -0.97,0.47 -1.03,-1.37l-5.06 4.41c-1.41,2.49 0.77,5.62 2.21,6.69 0.83,0.61 2.18,1.17 3.18,1.58 1.51,0.64 2.24,0.75 4,1.11 3.35,0.69 5.94,0.47 7.62,-1.62z"/>
  <path class="fil7" d="M51.63 189.64c0.14,2.64 1.5,6.03 1.8,8.29 0.52,3.78 -2.76,3.95 -1.77,6 1.25,0.03 1.09,-0.66 2.3,-1.29 0.49,0.6 0.38,0.59 0.63,1.63 0.22,0.92 0.28,0.86 0.44,1.88 0.2,1.34 0.23,2.99 1.32,3.4 0.58,-0.82 0.88,-7.32 1.05,-9.26 0.13,-1.54 0.37,-1.21 1.39,-2.06l9.89 -8.6 -8.53 0.01 -1.83 2.32 -0.07 -2.32 -6.62 0z"/>
  <path class="fil5" d="M50.26 128.44c0.9,2.82 5.31,4.42 8.75,4.43 3.87,0.01 7.31,-1.58 8.78,-4.38l0.29 -2.55c-2.27,-0.96 -14.95,-2.09 -17.62,-1.02 -0.17,0.28 -0.13,0.1 -0.24,0.64 -0.21,1.02 0.02,1.89 0.04,2.88z"/>
  <path class="fil7" d="M153.17 80.59c0.06,1.84 -0.02,-0.13 1.03,1.37 1.2,1.72 0.08,0.3 2.29,1.46 0.75,0.39 1.3,0.79 1.91,1.05 1.25,0.52 3.01,0.61 3.99,1.32 0.07,0.05 0.14,0.13 0.2,0.17 1.14,0.9 -1.25,1.8 0.67,5.35 0.02,0.05 0.06,0.12 0.09,0.17l0.31 0.48c0.42,0.53 0.85,0.91 1.46,0.8 1.67,-1.42 2.93,-3.65 4.07,-5.64 -2.41,0.52 -2.46,1.64 -3.95,2.44 -0.38,-2.99 1.96,-4.14 2.48,-6.95 -5.11,-0.1 -10.2,-0.65 -13.83,-3.17 -0.11,0.28 -0.42,0.66 -0.72,1.15z"/>
  <path class="fil1" d="M67.79 128.49c-1.47,2.8 -4.91,4.39 -8.78,4.38 -3.44,-0.01 -7.85,-1.61 -8.75,-4.43 -0.84,-0.99 -0.62,-1.89 -0.57,-3.42l-3.35 0.34c-0.6,9.85 22.11,11.97 25.02,1.77 -0.26,-0.22 -0.14,-0.16 -0.56,-0.38 -0.41,-0.21 -0.16,-0.11 -0.76,-0.32 -0.53,-0.19 -0.88,-0.32 -1.68,-0.32 -0.09,1.34 0.07,1.43 -0.57,2.38z"/>
  <path class="fil3" d="M40.16 111.96c-1.01,5.86 0.24,8.86 2.4,13.25 0.92,0.05 4,-1.02 4.74,-1.49l0.3 -0.82c-1.47,-0.62 -3.5,-4.07 -4.19,-5.49 -1.36,-2.8 -1.16,-2.6 -1.95,-5.17 -0.34,-1.08 -0.41,-1.01 -0.81,-1.26 -0.01,1.92 0.1,0.28 -0.49,0.98z"/>
  <path class="fil1" d="M203.09 106.53c-1.46,-0.25 -3.26,2.56 -4.86,4.42l-8.84 10.31c-0.86,1.01 -1.28,1.48 -2.22,2.57 -0.62,0.72 -2.39,2.28 -1.56,3.08 0.88,0.85 3.6,-3.01 4.77,-4.41 1.47,-1.78 2.95,-3.54 4.41,-5.16l6.63 -7.73c0.86,-0.99 2,-1.69 1.67,-3.08z"/>
  <path class="fil1" d="M45.33 86.33c0.03,-1.34 -5.13,-7.26 -6.36,-8.88l-5.19 -6.54c-0.71,-0.9 -0.87,-1.76 -2.31,-1.4 -0.13,1.66 8.15,11.34 9.65,13.23 2.24,2.84 2.56,4.14 4.21,3.59z"/>
  <path class="fil6" d="M43.93 206.16l0.9 2.73 2.43 -0.15c0.2,0.94 0.42,1.8 0.68,2.64l0.53 1.82c0.29,0.69 0.16,0.4 0.43,0.71 1.06,-1.52 3.83,-11.71 -1.94,-9.4 -0.63,0.25 -2.71,1.4 -3.03,1.65z"/>
  <path class="fil1" d="M203.86 118.78c-1.39,-0.29 -2.14,1.21 -3.74,3.09l-6.65 7.73c-0.51,0.58 -3.32,3.21 -2.4,4.1 0.87,0.84 6.11,-5.92 6.85,-6.84 1.88,-2.37 6.3,-6.44 5.94,-8.08z"/>
  <path class="fil1" d="M26.14 82.81c-0.43,1.48 -0.1,1.13 2.37,2.69 1.23,0.78 1.95,1.28 3.28,2.03 1.15,0.65 2.18,1.3 3.33,2.02l2.54 1.53c0.43,0.14 0.72,0.44 1.09,-0.23 0.38,-0.7 -0.05,-0.99 -0.81,-1.46 -0.65,-0.4 -0.95,-0.53 -1.69,-0.98 -1.1,-0.66 -2.03,-1.18 -3.32,-2 -1.21,-0.76 -5.53,-3.83 -6.79,-3.6z"/>
  <path class="fil6" d="M166.88 197.45c0.03,-1.02 -0.04,-7.54 -0.76,-7.96 -0.94,-0.54 -5.24,0.12 -0.82,6.46 0.61,0.87 0.69,1.11 1.58,1.5z"/>
  <path class="fil8" d="M193.02 184.8l-0.38 -8.19c-6.3,-0.91 -1.41,7.19 0.38,8.19z"/>
  <path class="fil8" d="M68.93 116.37c1.62,-0.4 5.8,-2.07 7.47,-2.82 -0.87,-0.5 -1.97,-0.52 -3.23,-0.79 -1.17,-0.26 -2.19,-0.74 -3.37,-1.19 -1.14,-0.3 -0.49,-0.07 -0.83,0.12 0.8,2.43 0.11,2.57 -0.36,4.6l0.32 0.08z"/>
  <polygon class="fil9" points="146.36,146.01 163.17,148.24 163.38,161.44 186.14,175.45 184.99,178.16 150.29,168.68 "/>
  <path class="fil4" d="M45.81 186.2c0.05,1.17 0.09,2.32 0.13,3.45l33.78 -0.03 -0.36 -4.62c-0.04,-0.15 -0.08,-0.29 -0.12,-0.4 -3.4,-1.23 -5.44,0.61 -12.19,-5.37 -1.16,-1.03 -0.44,-0.41 -1.1,-1.58 -0.32,-0.59 -1.8,-2.34 -2.36,-2.7 -0.56,-0.36 -1.09,-0.56 -1.9,-0.54 -0.36,0.01 -0.82,0.1 -1.15,0.23 -1.64,0.66 -2.04,2.27 -4.36,4.47 -0.73,0.69 -0.59,0.8 -1.92,0.68 -1.13,-4.11 0.4,-8.69 2.31,-11.74 0.61,-0.98 2.02,-2.33 2.96,-2.89 6.08,-3.61 16.33,-1 18.08,-2.54l-32.35 0.6 0.55 22.98z"/>
  <path class="fil9" d="M77.61 162.62c-1.75,1.54 -12,-1.07 -18.08,2.54 -0.94,0.56 -2.35,1.91 -2.96,2.89 -1.91,3.05 -3.44,7.63 -2.31,11.74 1.33,0.12 1.19,0.01 1.92,-0.68 2.32,-2.2 2.72,-3.81 4.36,-4.47 0.33,-0.13 0.79,-0.22 1.15,-0.23 0.81,-0.02 1.34,0.18 1.9,0.54 0.56,0.36 2.04,2.11 2.36,2.7 0.66,1.17 -0.06,0.55 1.1,1.58 6.75,5.98 8.79,4.14 12.19,5.37l-1.63 -21.98z"/>
 </g>
</svg>
