<?xml version="1.0" encoding="utf-8"?>
<!-- Generator: Adobe Illustrator 15.0.0, SVG Export Plug-In . SVG Version: 6.00 Build 0)  -->
<!DOCTYPE svg PUBLIC "-//W3C//DTD SVG 1.1//EN" "http://www.w3.org/Graphics/SVG/1.1/DTD/svg11.dtd">
<svg version="1.1" id="Ebene_1" xmlns="http://www.w3.org/2000/svg" xmlns:xlink="http://www.w3.org/1999/xlink" x="0px" y="0px"
	 width="612px" height="792px" viewBox="0 0 612 792" enable-background="new 0 0 612 792" xml:space="preserve">
<circle fill-rule="evenodd" clip-rule="evenodd" fill="#F7A600" cx="306.049" cy="395.951" r="255.049"/>
<g>
	<path fill="#FFFFFF" d="M364.19,519.129l-4.372,17.883c-13.113,5.167-23.581,9.11-31.395,11.823
		c-7.816,2.713-16.89,4.073-27.222,4.073c-15.896,0-28.25-3.874-37.058-11.624c-8.811-7.749-13.214-17.585-13.214-29.508
		c0-4.635,0.329-9.369,0.994-14.207c0.661-4.834,1.72-10.298,3.179-16.393l16.402-58.021c1.466-5.564,2.698-10.83,3.692-15.798
		s1.49-9.503,1.49-13.611c0-7.417-1.528-12.583-4.58-15.499c-3.055-2.913-8.898-4.372-17.532-4.372c-4.25,0-8.6,0.665-13.052,1.987
		c-4.452,1.326-8.271,2.583-11.457,3.776l4.377-17.883c10.743-4.372,21.02-8.112,30.833-11.227c9.814-3.111,19.097-4.67,27.852-4.67
		c15.781,0,27.95,3.81,36.502,11.425c8.552,7.619,12.829,17.521,12.829,29.706c0,2.518-0.298,6.955-0.895,13.313
		c-0.596,6.359-1.688,12.189-3.278,17.486l-16.34,57.822c-1.328,4.639-2.527,9.935-3.59,15.896
		c-1.062,5.962-1.593,10.467-1.593,13.512c0,7.686,1.717,12.916,5.157,15.698s9.393,4.172,17.862,4.172
		c3.968,0,8.463-0.695,13.489-2.086S361.938,520.191,364.19,519.129z M368.362,276.513c0,10.069-3.81,18.647-11.425,25.732
		c-7.619,7.088-16.79,10.63-27.521,10.63c-10.729,0-19.938-3.542-27.619-10.63c-7.685-7.085-11.525-15.663-11.525-25.732
		c0-10.065,3.84-18.678,11.525-25.831c7.682-7.153,16.89-10.73,27.619-10.73c10.73,0,19.901,3.577,27.521,10.73
		C364.553,257.835,368.362,266.448,368.362,276.513z"/>
</g>
</svg>
