<?xml version="1.0" encoding="UTF-8"?>
<!DOCTYPE svg PUBLIC "-//W3C//DTD SVG 1.1//EN" "http://www.w3.org/Graphics/SVG/1.1/DTD/svg11.dtd">
<!-- Creator: CorelDRAW 2020 (64-Bit) -->
<svg xmlns="http://www.w3.org/2000/svg" xml:space="preserve" width="803px" height="803px" version="1.1" style="shape-rendering:geometricPrecision; text-rendering:geometricPrecision; image-rendering:optimizeQuality; fill-rule:evenodd; clip-rule:evenodd"
viewBox="0 0 194.04 194.1"
 xmlns:xlink="http://www.w3.org/1999/xlink"
 xmlns:xodm="http://www.corel.com/coreldraw/odm/2003">
 <defs>
  <style type="text/css">
   <![CDATA[
    .fil0 {fill:#FF2A46}
   ]]>
  </style>
 </defs>
 <g id="Capa_x0020_1">
  <metadata id="CorelCorpID_0Corel-Layer"/>
  <path class="fil0" d="M90.63 0.31c-27.14,2.36 -48.39,12.88 -65.52,31.7 -14.69,16.15 -27.05,41.02 -24.86,72.1 1.05,14.77 5.09,26.67 10.74,37.91 1.16,2.31 1.33,1.75 1.16,4.87l-1.53 29.01c-0.26,4.47 -1.53,7.92 3.11,8.81 2.02,0.39 31.44,0.13 36.13,0.13 1.34,0 4.85,-0.15 5.93,0.13 0.99,0.25 3.17,1.41 4.37,1.89 32.71,12.93 67.34,8.37 95.06,-12.18 4.42,-3.28 9.54,-7.77 12.83,-11.58 0.94,-1.11 1.76,-1.81 2.87,-3.17 15.75,-19.15 24.55,-42.11 22.93,-68.37 -1.86,-30.16 -16.11,-51.97 -31.35,-66.01 -18.16,-16.71 -45.1,-27.56 -71.87,-25.24zm2.04 44.3c-8.64,1.22 -13.26,4.55 -15.06,12.59 -1.8,8.07 -0.25,16.99 1.72,24.46 1.43,5.39 7.89,26.16 11.31,30.01 2.1,2.37 6.14,3.81 10.06,1.96 3.36,-1.58 4.31,-4.16 5.66,-8.1 1.16,-3.37 2.36,-6.88 3.43,-10.35 2.16,-7.02 4.38,-13.89 6.18,-21.37 2.65,-11.04 1.34,-24.73 -10.62,-28.54 -3.58,-1.14 -8.7,-1.22 -12.68,-0.66zm1.94 77.83c-6.78,1.38 -12.89,7.65 -11.22,16.28 1.27,6.58 8.08,12.56 16.55,10.92 6.58,-1.28 12.73,-7.89 11.07,-16.31 -1.28,-6.49 -8.12,-12.57 -16.4,-10.89z"/>
 </g>
</svg>
